<?xml version="1.0" encoding="utf-8"?>
<!-- Svg Vector Icons : http://www.onlinewebfonts.com/icon -->
<!DOCTYPE svg PUBLIC "-//W3C//DTD SVG 1.1//EN" "http://www.w3.org/Graphics/SVG/1.1/DTD/svg11.dtd">
<svg version="1.1" xmlns="http://www.w3.org/2000/svg" xmlns:xlink="http://www.w3.org/1999/xlink" x="0px" y="0px" viewBox="0 0 1000 1000" enable-background="new 0 0 1000 1000" xml:space="preserve">
<metadata> Svg Vector Icons : http://www.onlinewebfonts.com/icon </metadata>
<g><g transform="translate(0.000000,512.000000) scale(0.100000,-0.100000)"><path d="M4618.4,5015.1c-553.8-55.6-833.6-109.2-1216.8-235.7C2525.8,4490,1853.2,3982.2,1422,3282.8c-381.4-619-536.6-1456.4-406.3-2194.1c207-1170.8,1019.5-2862.9,2025.5-4215.8c860.4-1157.5,1613.5-1747.7,2090.6-1640.3c638.1,141.8,1642.3,1214.9,2546.8,2723C8362.8-904.3,8840,241.6,8985.6,1102c90,519.3,40.2,1086.5-136.1,1592.4c-279.8,808.7-887.2,1469.8-1720.8,1872.2c-431.2,208.9-873.8,339.2-1408.5,413.9C5526.7,5007.4,4775.5,5030.4,4618.4,5015.1z M2608.2,226.3C3206.1,80.6,3727.3-249,4056.9-691.6c237.6-318.1,415.8-783.8,421.6-1101.9c3.8-124.6-1.9-145.6-38.3-176.3c-57.5-46-216.5-63.2-461.8-49.8c-603.6,30.7-1140.2,335.4-1544.5,873.8C2177.1-804.7,1949-270,1929.9,38.5c-9.6,176.3,1.9,205.1,99.6,235.7C2117.6,301,2393.6,279.9,2608.2,226.3z M7952.7,274.2c113.1-24.9,130.3-59.4,118.8-239.5c-30.7-488.7-509.7-1203.4-1046.3-1559.8c-429.2-283.6-931.3-461.8-1305-461.8c-139.9,0-155.2,3.8-182.1,46c-72.8,109.2-53.6,467.6,42.2,768.4c178.2,561.5,567.2,958.1,1205.3,1230.3C7190,230.1,7720.9,327.8,7952.7,274.2z"/></g></g>
</svg>